<svg width="144" height="24" viewBox="0 0 144 24" fill="none" xmlns="http://www.w3.org/2000/svg">
<path d="M16.5824 5.76245C17.1137 6.84547 17.3793 8.05109 17.3793 9.37931C17.3793 10.7075 17.1137 11.9132 16.5824 12.9962C16.0511 14.0588 15.3665 14.9068 14.5287 15.5402C12.8327 16.848 11.0754 17.5019 9.25671 17.5019H5.42529V20.9655C5.42529 21.4355 5.40485 21.7931 5.36398 22.0383C5.34355 22.2631 5.2516 22.5287 5.08812 22.8353C4.80204 23.387 4.00511 23.6628 2.69732 23.6628C1.26692 23.6628 0.429119 23.2848 0.183908 22.5287C0.0613027 22.1814 0 21.6501 0 20.9349V3.92337C0 3.45338 0.0102171 3.106 0.0306513 2.88123C0.0715198 2.63602 0.173691 2.36015 0.337165 2.05364C0.623244 1.50192 1.42018 1.22605 2.72797 1.22605H9.28736C11.0856 1.22605 12.8327 1.87995 14.5287 3.18774C15.3665 3.8212 16.0511 4.67944 16.5824 5.76245ZM9.28736 12.0766C9.90038 12.0766 10.5032 11.8519 11.0958 11.4023C11.6884 10.9527 11.9847 10.2784 11.9847 9.37931C11.9847 8.48021 11.6884 7.80588 11.0958 7.35632C10.5032 6.88633 9.89017 6.65134 9.25671 6.65134H5.42529V12.0766H9.28736Z" fill="#213243"/>
<path d="M29.8494 9.25671C29.972 8.11239 30.7791 7.54023 32.2708 7.54023C33.0678 7.54023 33.6604 7.60153 34.0486 7.72414C34.4369 7.84674 34.7025 8.0613 34.8455 8.36782C35.009 8.67433 35.101 8.95019 35.1214 9.1954C35.1623 9.42018 35.1827 9.76756 35.1827 10.2375V20.9655C35.1827 21.4355 35.1623 21.7931 35.1214 22.0383C35.101 22.2631 35.0192 22.5287 34.8762 22.8353C34.5901 23.3665 33.8851 23.6322 32.7613 23.6322C31.6578 23.6322 30.912 23.4994 30.5237 23.2337C30.1559 22.9476 29.9413 22.539 29.88 22.0077C29.124 23.0907 27.857 23.6322 26.0793 23.6322C24.3219 23.6322 22.6872 22.825 21.175 21.2107C19.6629 19.5964 18.9068 17.7267 18.9068 15.6015C18.9068 13.4559 19.6629 11.5862 21.175 9.99234C22.7076 8.37804 24.3832 7.57088 26.2019 7.57088C26.8966 7.57088 27.5301 7.69349 28.1022 7.9387C28.6744 8.18391 29.0729 8.4189 29.2977 8.64368C29.5224 8.84802 29.7063 9.05236 29.8494 9.25671ZM24.2708 15.6322C24.2708 16.3065 24.5365 16.9195 25.0678 17.4713C25.5991 18.0026 26.2427 18.2682 26.9988 18.2682C27.7549 18.2682 28.3781 17.9923 28.8685 17.4406C29.3794 16.8889 29.6348 16.2861 29.6348 15.6322C29.6348 14.9579 29.3896 14.3346 28.8992 13.7625C28.4292 13.1903 27.7855 12.9042 26.9682 12.9042C26.1712 12.9042 25.5173 13.1903 25.0065 13.7625C24.516 14.3346 24.2708 14.9579 24.2708 15.6322Z" fill="#213243"/>
<path d="M47.005 12.9655L45.0127 12.8429V17.0728C45.0127 17.6245 45.0944 18.023 45.2579 18.2682C45.4418 18.5134 45.7688 18.636 46.2387 18.636C46.7292 18.636 47.097 18.6565 47.3422 18.6973C47.6078 18.7178 47.8837 18.8097 48.1698 18.9732C48.6398 19.2388 48.8748 19.9234 48.8748 21.0268C48.8748 22.3142 48.5887 23.1009 48.0165 23.387C47.71 23.53 47.4341 23.622 47.1889 23.6628C46.9642 23.6833 46.627 23.6935 46.1774 23.6935C44.0523 23.6935 42.438 23.2133 41.3345 22.2529C40.2311 21.2925 39.6794 19.6679 39.6794 17.3793V12.8429C39.2911 12.9042 38.8722 12.9349 38.4227 12.9349C37.9731 12.9349 37.5951 12.7612 37.2886 12.4138C37.0025 12.0664 36.8594 11.4738 36.8594 10.636C36.8594 9.79821 36.9105 9.1954 37.0127 8.82759C37.1149 8.43934 37.2579 8.16348 37.4418 8C37.7688 7.73436 38.1774 7.60153 38.6679 7.60153L39.6794 7.72414V4.56705C39.6794 4.09706 39.6896 3.74968 39.71 3.5249C39.7509 3.30013 39.8531 3.05492 40.0165 2.78927C40.2822 2.27842 41.0689 2.02299 42.3767 2.02299C43.7662 2.02299 44.5938 2.40102 44.8594 3.15709C44.9616 3.48404 45.0127 4.00511 45.0127 4.72031V7.72414C45.9118 7.6424 46.5861 7.60153 47.0357 7.60153C47.5057 7.60153 47.853 7.62197 48.0778 7.66284C48.323 7.68327 48.5989 7.77523 48.9054 7.9387C49.4367 8.20434 49.7023 8.99106 49.7023 10.2989C49.7023 11.5862 49.4265 12.3729 48.8748 12.659C48.5682 12.802 48.2924 12.894 48.0472 12.9349C47.8224 12.9553 47.475 12.9655 47.005 12.9655Z" fill="#213243"/>
<path d="M51.732 20.5364C51.2007 19.8825 50.9351 19.3001 50.9351 18.7893C50.9351 18.258 51.3744 17.5632 52.2531 16.705C52.764 16.2146 53.3055 15.9694 53.8776 15.9694C54.4498 15.9694 55.2467 16.4802 56.2684 17.5019C56.5545 17.8493 56.9632 18.1865 57.4945 18.5134C58.0258 18.8199 58.5162 18.9732 58.9658 18.9732C60.8661 18.9732 61.8163 18.1967 61.8163 16.6437C61.8163 16.1737 61.5507 15.7854 61.0194 15.4789C60.5085 15.152 59.8649 14.917 59.0884 14.7739C58.3119 14.6309 57.4741 14.4061 56.575 14.0996C55.6758 13.7727 54.838 13.3946 54.0615 12.9655C53.285 12.5364 52.6311 11.8621 52.0999 10.9425C51.589 10.0026 51.3336 8.87867 51.3336 7.57088C51.3336 5.77267 51.9977 4.20945 53.3259 2.88123C54.6746 1.53257 56.5034 0.858238 58.8125 0.858238C60.0386 0.858238 61.1522 1.02171 62.1535 1.34866C63.1752 1.65517 63.8802 1.9719 64.2684 2.29885L65.0347 2.88123C65.6682 3.47382 65.9849 3.97446 65.9849 4.38314C65.9849 4.79183 65.7397 5.35377 65.2493 6.06897C64.5545 7.09068 63.8393 7.60153 63.1037 7.60153C62.6746 7.60153 62.1433 7.39719 61.5098 6.98851C61.4485 6.94764 61.3259 6.84547 61.142 6.68199C60.9785 6.51852 60.8253 6.3857 60.6822 6.28353C60.2531 6.01788 59.7014 5.88506 59.0271 5.88506C58.3732 5.88506 57.8214 6.04853 57.3719 6.37548C56.9428 6.68199 56.7282 7.12133 56.7282 7.69349C56.7282 8.24521 56.9836 8.69477 57.4945 9.04215C58.0258 9.38953 58.6797 9.62452 59.4562 9.74713C60.2327 9.86973 61.0807 10.0639 62.0002 10.3295C62.9198 10.5747 63.7678 10.8812 64.5443 11.249C65.3208 11.6169 65.9645 12.2605 66.4753 13.1801C67.0066 14.0792 67.2723 15.1928 67.2723 16.5211C67.2723 17.8493 67.0066 19.0243 66.4753 20.046C65.944 21.0473 65.2493 21.8238 64.391 22.3755C62.7359 23.4585 60.9683 24 59.0884 24C58.128 24 57.2186 23.8876 56.3604 23.6628C55.5022 23.4176 54.8074 23.1213 54.2761 22.7739C53.1931 22.1201 52.437 21.4866 52.0079 20.8736L51.732 20.5364Z" fill="#213243"/>
<path d="M78.0455 12.9655L76.0532 12.8429V17.0728C76.0532 17.6245 76.1349 18.023 76.2984 18.2682C76.4823 18.5134 76.8092 18.636 77.2792 18.636C77.7696 18.636 78.1375 18.6565 78.3827 18.6973C78.6483 18.7178 78.9242 18.8097 79.2103 18.9732C79.6802 19.2388 79.9152 19.9234 79.9152 21.0268C79.9152 22.3142 79.6292 23.1009 79.057 23.387C78.7505 23.53 78.4746 23.622 78.2294 23.6628C78.0046 23.6833 77.6675 23.6935 77.2179 23.6935C75.0928 23.6935 73.4785 23.2133 72.375 22.2529C71.2716 21.2925 70.7198 19.6679 70.7198 17.3793V12.8429C70.3316 12.9042 69.9127 12.9349 69.4631 12.9349C69.0136 12.9349 68.6355 12.7612 68.329 12.4138C68.0429 12.0664 67.8999 11.4738 67.8999 10.636C67.8999 9.79821 67.951 9.1954 68.0532 8.82759C68.1553 8.43934 68.2984 8.16348 68.4823 8C68.8092 7.73436 69.2179 7.60153 69.7083 7.60153L70.7198 7.72414V4.56705C70.7198 4.09706 70.73 3.74968 70.7505 3.5249C70.7913 3.30013 70.8935 3.05492 71.057 2.78927C71.3226 2.27842 72.1094 2.02299 73.4171 2.02299C74.8067 2.02299 75.6343 2.40102 75.8999 3.15709C76.0021 3.48404 76.0532 4.00511 76.0532 4.72031V7.72414C76.9523 7.6424 77.6266 7.60153 78.0762 7.60153C78.5461 7.60153 78.8935 7.62197 79.1183 7.66284C79.3635 7.68327 79.6394 7.77523 79.9459 7.9387C80.4772 8.20434 80.7428 8.99106 80.7428 10.2989C80.7428 11.5862 80.467 12.3729 79.9152 12.659C79.6087 12.802 79.3329 12.894 79.0876 12.9349C78.8629 12.9553 78.5155 12.9655 78.0455 12.9655Z" fill="#213243"/>
<path d="M89.6078 23.6322C87.5439 23.6322 85.8274 22.8557 84.4583 21.3027C83.1097 19.7292 82.4353 17.8186 82.4353 15.5709V10.2069C82.4353 9.71648 82.4456 9.35888 82.466 9.1341C82.5069 8.90932 82.5988 8.64368 82.7419 8.33716C83.0279 7.78544 83.8249 7.50958 85.1327 7.50958C86.5631 7.50958 87.4009 7.89783 87.6461 8.67433C87.7687 9.00128 87.83 9.52235 87.83 10.2375V15.6015C87.83 16.4393 88.065 17.0932 88.535 17.5632C89.0254 18.0332 89.6691 18.2682 90.466 18.2682C91.2834 18.2682 91.9373 18.023 92.4277 17.5326C92.9385 17.0421 93.194 16.3985 93.194 15.6015V10.1762C93.194 9.70626 93.2042 9.35888 93.2246 9.1341C93.2655 8.88889 93.3677 8.61303 93.5311 8.30651C93.7968 7.77523 94.5835 7.50958 95.8913 7.50958C97.1786 7.50958 97.9654 7.78544 98.2514 8.33716C98.3945 8.64368 98.4762 8.91954 98.4967 9.16475C98.5375 9.38953 98.558 9.73691 98.558 10.2069V21.0575C98.558 21.507 98.5375 21.8544 98.4967 22.0996C98.4762 22.3244 98.3843 22.5798 98.2208 22.8659C97.9143 23.3972 97.1276 23.6628 95.8606 23.6628C94.6142 23.6628 93.8479 23.4176 93.5618 22.9272C93.3574 22.5798 93.2553 22.1609 93.2553 21.6705C93.1735 21.8135 92.9896 22.0179 92.7035 22.2835C92.4175 22.5492 92.1416 22.7739 91.876 22.9579C91.1812 23.4074 90.4251 23.6322 89.6078 23.6322Z" fill="#213243"/>
<path d="M111.844 0.827587C112.007 0.521074 112.283 0.306514 112.671 0.183909C113.059 0.0613031 113.57 0 114.204 0C114.858 0 115.379 0.0613031 115.767 0.183909C116.155 0.306514 116.421 0.521074 116.564 0.827587C116.727 1.1341 116.819 1.40996 116.84 1.65517C116.881 1.87995 116.901 2.22733 116.901 2.69732V20.9962C116.901 21.4662 116.881 21.8238 116.84 22.069C116.819 22.2937 116.727 22.5492 116.564 22.8353C116.257 23.387 115.389 23.6628 113.959 23.6628C112.549 23.6628 111.762 23.1622 111.598 22.1609C110.74 23.1418 109.545 23.6322 108.012 23.6322C106.173 23.6322 104.498 22.8353 102.985 21.2414C101.473 19.6271 100.717 17.7573 100.717 15.6322C100.717 13.4866 101.473 11.6066 102.985 9.99234C104.518 8.37804 106.194 7.57088 108.012 7.57088C109.524 7.57088 110.699 8.08174 111.537 9.10345V2.66667C111.537 2.19668 111.547 1.8493 111.568 1.62452C111.609 1.37931 111.701 1.11367 111.844 0.827587ZM106.878 17.4713C107.409 18.023 108.053 18.2989 108.809 18.2989C109.565 18.2989 110.188 18.023 110.679 17.4713C111.19 16.9195 111.445 16.3167 111.445 15.6628C111.445 14.9885 111.2 14.3653 110.71 13.7931C110.24 13.2209 109.596 12.9349 108.778 12.9349C107.961 12.9349 107.307 13.2209 106.817 13.7931C106.326 14.3448 106.081 14.9579 106.081 15.6322C106.081 16.3065 106.347 16.9195 106.878 17.4713Z" fill="#213243"/>
<path d="M119.343 10.2375C119.343 9.76756 119.353 9.42018 119.373 9.1954C119.414 8.95019 119.506 8.67433 119.649 8.36782C119.935 7.83653 120.732 7.57088 122.04 7.57088C123.021 7.57088 123.716 7.74457 124.124 8.09196C124.472 8.37803 124.656 8.81737 124.676 9.40996C124.696 9.6143 124.707 9.9106 124.707 10.2989V21.0268C124.707 21.4968 124.686 21.8544 124.645 22.0996C124.625 22.3244 124.533 22.59 124.369 22.8966C124.104 23.4278 123.317 23.6935 122.009 23.6935C120.722 23.6935 119.935 23.4176 119.649 22.8659C119.506 22.5594 119.414 22.2937 119.373 22.069C119.353 21.8442 119.343 21.4866 119.343 20.9962V10.2375ZM124.369 4.56705C124.226 4.85313 123.961 5.05747 123.573 5.18008C123.184 5.30268 122.663 5.36399 122.009 5.36399C121.376 5.36399 120.865 5.30268 120.477 5.18008C120.089 5.05747 119.813 4.84291 119.649 4.5364C119.506 4.22989 119.414 3.96424 119.373 3.73946C119.353 3.49425 119.343 3.13665 119.343 2.66667C119.343 2.19668 119.353 1.8493 119.373 1.62452C119.414 1.37931 119.506 1.11367 119.649 0.827587C119.935 0.275862 120.732 0 122.04 0C123.327 0 124.104 0.275862 124.369 0.827587C124.533 1.1341 124.625 1.40996 124.645 1.65517C124.686 1.87995 124.707 2.22733 124.707 2.69732C124.707 3.1673 124.686 3.5249 124.645 3.77012C124.625 3.99489 124.533 4.26054 124.369 4.56705Z" fill="#213243"/>
<path d="M126.695 15.6322C126.695 13.1801 127.554 11.1571 129.27 9.56322C130.987 7.96935 132.948 7.17241 135.155 7.17241C137.362 7.17241 139.314 7.96935 141.01 9.56322C142.706 11.1367 143.554 13.1494 143.554 15.6015C143.554 17.2976 143.114 18.8097 142.236 20.1379C141.357 21.4457 140.284 22.4163 139.017 23.0498C137.771 23.6628 136.473 23.9694 135.125 23.9694C133.776 23.9694 132.468 23.6424 131.201 22.9885C129.934 22.3142 128.861 21.3333 127.983 20.046C127.125 18.7382 126.695 17.2669 126.695 15.6322ZM133.102 17.8391C133.755 18.3295 134.42 18.5747 135.094 18.5747C135.768 18.5747 136.443 18.3193 137.117 17.8084C137.791 17.2976 138.128 16.5415 138.128 15.5402C138.128 14.539 137.812 13.7931 137.178 13.3027C136.545 12.8123 135.86 12.5671 135.125 12.5671C134.389 12.5671 133.704 12.8225 133.071 13.3333C132.437 13.8442 132.121 14.6003 132.121 15.6015C132.121 16.5824 132.448 17.3282 133.102 17.8391Z" fill="#213243"/>
</svg>
